<svg height="39" viewBox="0 0 359 39" width="359" xmlns="http://www.w3.org/2000/svg"><path d="m121.736614 26.5998827c1.740351.7784905 4.346918.5711124 6.169107.2511833 3.068429-.5387369 3.637257-1.0430605 3.189812.0426111l-.074553.1749701c-.040902.093642-.087104.1966652-.137979.309726-1.074069 2.3869192-5.238407 4.9172092-8.867466 5.5890857-2.166686.4021991-2.518842.5189667-2.630976.8739028-.126035.3966388-.094526 1.6766958.103793 1.7999504.230881.142421.480339 1.548904-.338653 1.8582406l-.124384.0364724.000082.0500826c.000026.0098888.000057.0205601.000092.0320316l.000102 1.0004143c-.004049 1.3059939-.025944 3.8931158-.122003 8.5139152-.139936 6.7641746-.102867 6.8188514 3.118434 4.6030491.466143-.321574.703385-.4068328.78123-.2807981.183492.2965524.077845 1.40121-.15847 1.6625468-.121402.1343753-.294699.4383415-.385518.6755834-1.007352 2.6504369-4.875507 5.3601844-8.754783 6.1321473-1.313171.2613368-5.71234.1278882-6.903183-.2085134-2.931235-.8312734-6.424993-3.3047056-7.7038752-5.4547104-1.3242918-2.2269231-2.0990349-3.9469269-2.7004802-5.997772-.5106261-1.7403918-.2687506-6.8012436.4151734-8.6491356.1566167-.4244406.3326947-1.011985.3910784-1.3048305.1028666-.5161865 1.2705416-3.0961922 1.4725679-3.2518822.0546769-.0426294.2752377-.4244406.4902382-.8488812.6941179-1.3706281 3.3816235-3.8514741 5.4463695-5.0274896 2.525638-1.4382791 5.143323-2.1560323 7.853055-2.1532596-.486207.5143405-1.400878 1.346081-2.744013 2.4952215-.422587.36235-.434635.4049794-.229828.8349803 1.008278 2.1073754 8.066225-.3753241 9.974354-3.5076586.136229-.2242678.463363-.5152598.726553-.6468549.609786-.3039662.418636-.197243 1.744123.3956716zm19.713296 5.6901393c.100086.0871123.564376.4355613 1.031446.7765966.46707.3401085.957308.7015317 1.08983.8034716.341962.2622635.930433.6746567 2.693993 1.8868145.200102.1375832.383692.259933.552042.3723457l.194785.1304644c1.813774 1.2216008 1.645082 1.3911331 1.476389 8.7755726-.146939 6.4511082-.170639 7.4271549-.439084 7.858908l-.032082.0476827-.034379.044535c-.029642.0362684-.061809.0710113-.096827.1086121-.293772.3150869-2.44285 1.08983-3.975655 1.4327187-1.49759.3354749-5.773505 2.3853932-7.221051 3.4631758-1.623624 1.2075242-2.025823 1.1954768-3.643887-.1130606-.591252-.4791174-3.329727-2.2769663-3.466883-2.2769663-.333621 0-2.596687-1.66162-2.813541-2.0647459-.167769-.3134891-.243196-2.2072613-.248434-4.5959118l.000512-.7303562c.003002-.8668702.014331-1.7810669.033038-2.6960532l.017818-.783382c.088113-3.5163206.281942-6.8465745.526981-7.3202594.287285-.555109 1.173235-1.0564679 2.64395-1.4966628.978623-.2919188 1.469787-.4781908 3.706904-1.4002833 2.690287-1.110218 3.409426-1.4493998 4.71055-2.2250696 1.629184-.9702824 2.170392-.9702824 3.293585.0018534zm29.183534-1.6923111c.065798-.0100849 1.559681 1.4022458 3.32046 3.1389307l3.201839 3.1573562.077845 6.9430327c.073212 6.6409199.089893 6.958787.381812 7.2812877.357716.3947854 1.947978 1.1889897 2.665264 1.3317056 1.068515.2122203 1.027739 1.1009507-.091746 2.0202631-.288829.2371801-.894126.7883351-1.514739 1.3746087l-.338225.3215924c-.112041.107241-.222779.2139669-.330403.3185016-1.811749 1.7607798-2.195414 1.8154567-3.783823.5412081-.085259-.0685777-.606079-.399419-1.158408-.7358206l-.137866-.0843315c-.504632-.3086454-.989342-.6047666-1.115067-.682071-2.411342-1.4938827-3.956195-1.171382-7.751138 1.6189906-1.929444 1.4188178-2.141665 1.4512533-3.291732.4985787-1.939638-1.6069432-3.09172-3.0167247-5.677861-3.171257-.284889-.0170233-1.50533.0359363-1.595854-.1944604-.142124-.3617249 1.013434-1.2581655 1.338961-1.7942941.0231-.0379115.045007-.0746815.065798-.1113854l.040116-.0736381c.322279-.618226.348855-1.4172018.439001-7.3752088.018225-1.2027361.033001-2.2067153.035267-3.0478351l-.000215-.485416c-.013336-3.3428719-.291506-3.8072261-1.554948-4.2471865l-.182761-.0615187c-.09465-.0309673-.194259-.0624621-.299072-.0954536-.459656-.1445693-1.404261-.0949533-1.590533-.292346l-.663677-.4730345 1.104143-.6497304c.197393-.2381686.873903-.8498079 1.501296-1.3595073 1.302977-1.0583213 2.116643-1.8803275 2.522549-2.5484971.463363-.7626956 1.212158-.6171996 2.397441.4633631.326207.2965524 1.252007 1.130606 2.057332 1.8534524 2.873749 2.5756907 2.700031 1.6942809 2.695635 9.0964589l.000211.7425932.009268 6.8271919.695044.7145059c1.302051 1.3391194 1.928518 1.4429127 3.57809.5884711 1.414575-.7313333 1.51377-.5716514 1.51898-5.3225685l-.000076-7.5162962-.600518-.7265534c-.779377-.9434072-2.556445-1.738443-3.458149-2.1628836-.947114-.4448285.041309-.9296017.844781-1.598698.633881-.5291607 1.014765-.907265 2.516988-2.5003073.678364-.7200662 1.408624-1.3520935 1.621771-1.4058436.213147-.0537502.441122-.1056468.506919-.1159499zm98.115283.1887656c.29082.6791143.29082 1.3202318 0 1.9233525-.213147.4411217-.387371.8442476-.387371.8942908 0 .3428887-1.751513 2.355738-2.47992 2.8506098-1.860866 1.2631278-4.603975 1.5569-6.929131.7413809-.865113-.3032045-1.944398-.7936898-2.377053-.5523945-.774682.4320462-.501162 2.4706909-.501162 6.8727314v6.4961851c1.059428 1.2047824 2.018833 1.9242665 2.878215 2.1584522 2.292098.6246079 1.859012.6246079-1.110218 3.5771576-.917981.912929-1.865465 1.7315213-2.842454 2.4557767-.629427-.5704357-1.241932-1.1187328-1.837514-1.6448913-2.050845-1.8117497-2.896019-2.3168155-4.995981-2.9849851-.522695-.1663759-1.255242-.3734399-2.197641-.6211919.617557-.7082814 1.148077-1.3519521 1.591562-1.931012.959162-1.2520071 1.031447-1.7394651 1.031447-6.9847354 0-.114663-.000016-.2270117-.00006-.3371055l-.000704-.6339818c-.009333-4.5590789-.126893-4.7934392-1.499606-6.132269-.367799-.3586649-.941611-.730814-1.721434-1.1164475.638789-.6942997 1.183563-1.2303422 1.634322-1.6081275.405906-.3401085 1.224205-1.0777826 1.819163-1.6393787 1.468861-1.3863824 1.852526-1.4549601 2.737549-.4846778 2.43451 2.6708249 3.758802 3.3649429 5.014516 2.6281955.760842-.4457553 3.988629-3.2889512 4.182315-3.6828099.04819-.0991597 1.552267.0787718 2.707894.3206473 1.112072.2326083 2.211169.1844185 3.564189-.1566167.659159-.1660828 1.232185-.3021345 1.719077-.4081552zm35.944969-7.9549675c3.715475.0059162 5.46265.0837612 5.769582.2383392.500432.2511428 1.263128 1.6199174 1.694982 3.0396619.133449.4401949.4161 1.1454336.628321 1.567094.211293.4207337.384591.8739028.384591 1.0064246 0 .2326083.113061.5514021.569937 1.6069433.836834 1.9340776.599592 3.7578747-.382738 2.9460626-.145496-.1204744-.473557-.3169404-.728407-.4383415-.459656-.2177807-2.159272-1.3242918-2.48826-1.6199174-.094526-.0852588-.436488-.3632767-.760842-.6181264s-.663536-.5337943-.755282-.6190531c-.620906-.585691-4.749472-3.4742965-4.964472-3.4742965l-.028499-.0070491c-.076467-.0276559-.263817-.1334161-.455252-.2589213-.684851-.4485355-1.939904-.6122012-2.74311-.8099587-1.752358-.4314486-1.900863-.2386045-1.904922 4.9242963l.00007.5943294c.000257.3076119.000794.6310603.001359.9710902v7.0963715c.958539-.056162 1.731428-.1282315 2.318667-.2162086.719139-.1075002.708945-.1000864 3.389964-2.8923124.929506-.9684289 2.47501-2.3890475 2.603825-2.1833143.255884.407544.300464 1.098275.303682 3.2587553l-.000074.6696054c-.000928.7130498-.003957 1.5596592-.004926 2.568864l-.000307.3114497c-.006299 5.8164312-.044927 5.8965613-1.091377 4.8856308-.73304-.707092-2.576299-2.5911264-3.099899-3.1675501-.87483-.9628685-2.586493-1.276102-3.392745-.6209066l-.36513.2965524.032436 6.1108326c.037995 7.3739603.006487 7.2859214 2.44563 6.8865024.505993-.0834054.961942-.1510564 1.012912-.1519831.05097 0 .296552-.1918324.543988-.4253674.015415-.0145187.030706-.0288489.045953-.0430517l.091613-.0841729.094437-.0840346c.404735-.353915.983553-.7803378 2.993004-2.2306643l.330028-.2398356c.661002-.4830865 1.304982-.9696745 1.523425-1.1539606 1.365067-1.1500672 5.496413-3.8625948 6.040401-3.9663881.711726-.1362288.799765.456876.240022 1.6106501-.88317 1.8182368-3.385331 6.9986363-3.642961 7.5426245-.610712 1.2881495-1.069442 1.8923749-1.61621 2.1268367-.284479.1219836-4.757504.2461536-9.421245.3156968l-.824179.0116938-.823256.0104902c-1.642335.0197307-3.249838.031824-4.646746.0337823l-1.005447-.0004706c-1.814218-.004626-3.117595-.0308457-3.4104-.0857609-.607933-.1139873-2.549165-.1306684-2.146965-.2854316.124181-.0472631 1.744766-1.1750888 1.982007-1.540219.005125-.0078864.010197-.0156165.015217-.0232078l.02949-.0440217c.028867-.0426358.055871-.0815341.08109-.1204765l.024628-.0390971c.008013-.0131306.01583-.0264061.023455-.0399667l.0223-.0416767c.007243-.0142706.014296-.0289663.021163-.0442271l.020042-.0476177c.01624-.0413276.031331-.0870624.045318-.1393928l.016258-.0661025c.086536-.3825167.125781-1.0904676.130722-2.752994l-.000071-.8236243c-.005623-2.1449835-.049728-5.5394348-.115451-11.0001504-.174225-14.5394073-.229829-15.884087-.677437-16.5439161-.11402-.1681003-.828119-.6509246-2.142297-1.448473 1.574357-.0540118 4.226549-.1059084 7.956577-.15569 3.70873-.0495585 6.679101-.0772475 9.005902-.0822048zm99.461776 5.9712423.375324.4633631c.483751.5968117.789571 1.1871363 1.157481 2.2315567.163104.4624364.392932.9897436.511553 1.1704552s.319721.6792903.447609 1.1083646c.126962.4281475.352156 1.0138384.500432 1.3001968.252996.4893114.330841 1.5355853.137156 1.8488188-.116768.1890521-1.108365-.3651301-2.611515-1.4577403-.682997-.497652-1.485542-1.0397868-1.782094-1.2047441-.165266-.0921578-.431786-.2483855-.716135-.4187874l-.344437-.2080927c-.114105-.0695031-.225724-.1380809-.329518-.2025398-3.290804-2.0462115-5.521434-2.4391434-5.796672-1.0203256-.238169 1.2325459-.033362 8.2951262.25763 8.8567223.562523 1.0833429 2.070306.7080188 3.839427-.954528 2.692139-2.5299625 2.662484-2.558691 2.839489 2.6661913.211293 6.2174061.138082 6.2748631-3.238908 2.5308892-1.216792-1.3493133-1.901643-1.6708873-2.68936-1.2640545l-.090029.0449927c-.824409.3996069-.775015.0958383-.364067 6.7506905.240949 3.9080044.564377 4.3315183 2.722722 3.5697493.256387-.0903768.479515-.1712074.69029-.2558355l.178128-.0737797c1.02712-.4394378 1.894785-1.0691305 5.216466-3.5570744 1.809896-1.3558005 1.771901-1.333559 2.477139-1.462374.66817-.1223278.849808.2075867.513407.9304331-.333158.715896-.714738 1.5010069-1.105918 2.2822081l-.261783.5194191c-1.093137 2.1551459-2.193785 4.1547401-2.469873 4.4314708-.225578.2255787-5.339376.3995563-10.753761.510853l-.813838.016223c-3.938907.0761256-7.915241.1190135-10.180757.1244413l-.835222.0000969c-.424901-.0012036-.736074-.0046237-.908931-.0103197-.097948-.0032079-.343508-.0053053-.736681-.0062924l-.442378-.0006169h-.349589l-.606392.0006169c-.655596.0009871-1.458804.0030845-2.409625.0062924.598621-.660652 1.032329-1.2262639 1.301124-1.6968356.435561-.761769.253923-2.2148757-.479118-3.8273792-.20388-.4485355-.37069-.8915106-.37069-.9841833 0-.0926726-.202953-.5597426-.451316-1.0379333s-.557889-1.1120714-.687631-1.4095506c-.31416-.7200662-1.305757-1.5170507-1.51427-1.2167915-.148538.2126481-.352562 1.9713749-.481177 3.8286808l-.037956.5881062c-.105432 1.7640196-.130818 3.4797629.035137 3.9164648.249857.6572624.70973 1.2283914 1.379618 1.713387-2.95888.033728-5.31603.0525971-7.07145.0566073l-1.014512.0005778c-1.599954-.0022874-2.520611-.0213491-2.761971-.0571851-1.350809-.2005615.887442-.5663689 1.38658-1.3289254.495799-.7562086.646855-1.8024825.546769-3.7940171-.05375-1.0620282-.178858-5.9968452-.278018-10.9659511-.181504-9.0791731-.215231-10.5078252-.534844-11.1938362l-.030327-.061416-.032027-.0584049c-.005484-.0095503-.011042-.0190254-.016675-.0284505l-.034719-.056152-.018063-.0280033-.037581-.0566156-.019537-.0289143c-.384592-.5662297-.335475-1.0240325.126961-1.2019639.126372-.0483246.782656-.0715917 1.745539-.0756053l.505958-.0004292c3.617839.0076636 10.38032.2287927 11.380646.4318974 4.785614.9702823 7.386934 5.5733313 6.199798 10.9678045-.341962 1.5541199-1.234399 3.4214732-1.881254 3.9367329-1.951686 1.5541199-2.436494 2.0673442-1.613561 3.2637477.267823.389225 1.255951 3.8961389 1.7016 5.1555598.445648 1.2594209 3.083653 4.4544265 3.699926 4.1356326.929506-.4800441.942045-1.9674251.841959-6.7610479-.016075-.769909-.031994-1.5548647-.04805-2.3463761l-.024225-1.1911225-.016375-.7963998-.01663-.796053c-.145425-6.8921722-.327044-13.5326794-.736679-14.3941641-.318606-.6700436-.820036-.9278595-1.504291-.7734476l-.149425.0393979v-1.0528305c1.360435.0698134 2.942357.0698134 4.745766 0 .9553-.037069 3.664945-.0689896 6.476057-.0786001l.675769-.0018693c.112671-.0002373.225292-.0004366.337759-.000597zm-55.939026.0470643c.300567.0008945.606459.0029877.914556.0062503l.618207.0080759c2.477184.038472 4.962238.1505501 5.856931.3213475 1.924811.3660568 3.307486.8368337 4.037746 1.3734082 1.058322.7775233 2.780179 2.2528714 2.780179 2.3816863 0 .0722847.194612.4216604.431854.7775233 1.775608 2.6578507 1.265908 7.7993277-1.025886 10.3376307-1.441059 1.5958226-3.431667 2.443777-7.154326 3.0480025-2.409488.3910785-2.388173.3401085-2.215802 5.3221886.116767 3.3612359.21222 3.8524008.835907 4.2898156.246355.1724483.273114.239771.124534.608843l-.044836.108443-.214074.5106262-4.288888-.0518967c-5.260098-.0630174-5.473245-.135302-4.783761-1.6301114.203032-.4394271.303364-.8391464.312718-2.4827901l.00045-.4375688c-.004932-1.601562-.076601-4.2048284-.207521-8.6294297-.0936-3.1434553-.224268-7.5630125-.290992-9.8214443-.09638-3.2787573-.170518-4.2064102-.367911-4.603049-.241875-.4828243-.216853-.8201527.088039-1.2140113.11425-.1477167 1.857854-.2184685 3.999767-.2237223zm-138.467742 2.0380697c.390151 0 1.290929.46707 1.566167.8118121.395712.4948718 3.076731 2.6050274 4.388049 3.4529819 1.380822.8942907 1.517977 1.204744 1.082416 2.4539709-.006909.0197983-.01367.0393366-.020287.0586737l-.038003.1140767c-.018162.0563002-.035083.1118452-.050847.1682192l-.030007.1143224c-.14256.5818323-.174793 1.3521648-.178944 3.8951156l-.000117 1.4265276.000338.3246301.006487 5.1739124.497652.8627821c.699678 1.2158648.827566 1.360434 2.053625 2.345544 1.412331 1.1324594 1.405844 1.3928695-.065798 2.6856525-.564376.4957985-1.20011 1.110218-1.413257 1.3650677-1.76912 2.122203-2.023043 2.2019015-3.209253 1.0129117-2.23341-2.2380437-4.489062-3.3983049-7.205296-3.705978-1.014189-.1147755-2.563793.034847-2.657851-.2796997-.077577-.2594321 1.15729-.9443423 1.674594-1.3921144 1.839164-1.5916775 1.972304-1.4053348 1.976403-5.5074288l-.000046-.5355362c-.000081-.0931249-.00019-.1882208-.000313-.2853426l-.000778-.6074799c-.000237-.2108893-.000412-.430321-.000412-.6587337l-.000659-.6780824c-.013611-5.9008592-.257699-6.4213022-2.604368-7.2648878-.528234-.1899789-.810886-.3882983-.875757-.6144195-.051896-.1834918-.127888-.4522424-.168664-.5977384-.051896-.1890522.265971-.5106261 1.13246-1.1445069.662609-.4846778 1.552266-1.1732353 1.977633-1.5300249.424441-.3567896 1.042567-.8322001 1.372482-1.0564679.330841-.2242677.686704-.4077595.792351-.4077595zm111.825231-2.1443753c1.869146.0033772 3.637682.0298288 3.952526.080556.672803.1075003.909119.6088592.862782 1.8330645-.013901.3697637.107501.866489.302113 1.235326.178858.3401085.504139.9526745.722847 1.3622875 1.436425 2.6949198 2.479919 3.3510419 3.046149 1.9146163.1075-.2733842.347522-.7052386.532867-.9600883.897071-1.2325459 1.391016-2.5800058 1.359507-3.7069048-.044482-1.618064-.139009-1.5689475 3.120288-1.6301114 1.170788-.022019 2.044894-.0421697 2.6947-.0446946l.306546.0002794c1.731148.0113644 1.552167.2049983 1.417384 1.006357-.010194.057457-.394785.3206473-.855368.5838375-1.564314.8942908-3.073951 2.9488428-5.226736 7.1116969-.505066.9767694-1.029593 1.9850475-1.165822 2.2398972-.349375.6524152-.309526 1.8664265.088039 2.7023336.647782 1.3622875 2.520696 4.7921011 3.225934 5.906026.344742.544915.87205 1.4818352 1.718151 3.0526361.205733.3818112.641294 1.1463603.967502 1.6986892.326207.5523288.734894 1.2594209.908192 1.5708009.173297.31138.543061.7256266.821079.9202391 2.419682 1.6949822 1.691275 2.1527849-3.519706 2.2083885-.756788.007993-1.419629.0147842-2.000293.0166376l-.477863.0002924c-3.58991-.0085478-3.626785-.2878154-3.673453-1.9686154-.029655-1.059248-.114914-1.4716412-.446682-2.1453711-.132593-.2698199-.465885-.8726306-.834737-1.521862l-.224256-.3928168c-.527057-.9188716-1.059075-1.8163922-1.142908-1.9062133-.19832-.2140738-1.13802.4086862-1.450327.9600883-2.255651 3.9895563-1.71259 5.5436761 0 6.74564.471704.331768-.432781-.2103668-1.341899 0-.399522.0926726-1.944598.1029696-3.5823.085808l-.924036-.0121874c-1.737633-.0271234-3.356959-.0736206-3.59503-.0736206-3.552275 0-.684925-.923946.28165-1.3270719.975843-.4077595 2.618002-1.9025689 3.110093-2.8302218.118621-.2242678.267824-.4420484.332695-.4837511.063944-.0426294.340109-.4948718.614419-1.0045712.273385-.5096994.72192-1.343753.997158-1.8534524s.723773-1.343753.997157-1.8534524c.272458-.5096994.583838-1.0305195.691338-1.1584077 1.067589-1.2668347.981403-2.7940795-.279871-4.9422308-.124182-.2122203-.581984-1.1139249-1.016619-2.0035821-.434635-.8896571-.882243-1.7237107-.995304-1.8534524-.112134-.1297417-.292845-.5096994-.400346-.8433208-.106573-.3345482-.393858-.9211659-.636661-1.3048305-.243729-.3827379-.442048-.751575-.442048-.8182993 0-.0667242-.243729-.5013588-.541208-.9656487-.297479-.4652165-.540281-.9007778-.540281-.9684288s-.174225-.3252809-.386445-.5727168c-.212221-.2465092-.385518-.5050658-.385518-.5736435 0-.0695045-.452243-.6440747-1.004572-1.2770287-1.004571-1.1519207-1.308537-1.9572458-.810885-2.1518583.136802-.0533971 1.977016-.0828379 3.942474-.0869217zm-123.382434 1.7440296c.56067-.2483627.402525.0500432 2.34587.3984922.93414.1677375 2.461059.0009268 2.794681.0018535.999937.0037069.922092.7191395.417953 1.4716412-.113061.1677374-.300259.5476952-.417953.8451743-1.354874 3.4270335-4.318545 4.9283299-7.472194 3.7847498-1.510563-.5486219-2.360121-.8546988-2.804023-.2189646-.192759.2761644-.671984.9870943-.729441 1.0297237-.216819.1608657-.318786 2.4785411-.323702 5.0626371l.000674.6243305c.010919 2.7192098.125269 5.5630085.323028 6.4049655.091706.3916426.14991.7266999.204794 1.0130084l.041013.2057134c.247998 1.1809071.581568 1.4143202 3.751026 1.4143202h2.830874c-.432298.370418-.763976.6771323-.995035.9201429-.252996.2659704-.896144.6829972-1.429012.9257995-.532867.2418755-1.853452 1.0240324-2.934942 1.7366849-2.041578 1.3456064-2.893239 1.7524392-3.186084 1.5207577-2.475286-1.9553923-3.441862-2.6115145-4.818977-3.2704168-1.925737-.9220926-2.143517-1.1797224-1.910909-2.2612119.098233-.4596562.177005-3.3278738.196466-7.118184l.030582-6.3480744-.521747-.5402814c-.287285-.2974791-.459563-.5229945-.852495-.6925854-.392006-.1686642-1.428468-.3687733-1.675904-.6273299l-.79856-.6074813.910984-.7906913c.237242-.3428887.474484-.62276.52638-.62276.051897 0 .278018-.1566168.502286-.3475224s.657975-.5458417.964722-.788644c.306746-.2428022 1.013838-.9823297 1.570801-1.6430855 1.451253-1.7200038 1.682935-1.7403918 2.997959-.274311 3.857034 4.3027898 4.575247 4.3852684 8.066225.9257995 1.077782-1.0685153 2.155565-2.0286036 2.39466-2.1342504zm227.018264-3.2963651.656122.6996783c.360496.3836646.700605.8859502.755282 1.1139249.055603.2289013.225194.6941179.379031 1.0342264 1.051834 2.3362767 1.593969 3.6781763 1.823797 4.5131566.144569.5282339.31138 1.0082781.37069 1.0675886.244656.2446557.077845.456876-.387371.4920916-.446682.0342888-.674657-.145496-2.354811-1.8590128-2.658778-2.7116008-5.715121-3.9941899-7.683487-3.2259339-.195539.0759916-.653342.2270479-1.018472.3354749-1.501297.4476088-2.481773 2.0554787-2.303842 3.7801162.213147 2.0619658 1.724638 2.9840583 6.674282 4.0720349 3.922832.8627821 6.577903 2.9488428 7.684414 6.0385479.137156.3818112.428148 1.1250456.647782 1.6504994.887803 2.12869.00278 6.0366944-1.731125 7.6408575-2.469725 2.28438-4.98208 2.9627436-9.612931 2.5939066-3.249102-.2576299-3.254662-.2576299-4.189729.2048065-1.105584.5476952-1.586555.3076731-2.111082-1.0546144-.194613-.5059925-.484678-1.1973303-.645002-1.5374388-.160323-.3391818-.407759-.9304331-.551402-1.3122443-.142716-.3827379-.380884-.9730625-.52916-1.313171-.148277-.3401085-.318794-.8266398-.378105-1.0814895-.060237-.2548497-.31138-.8572217-.559742-1.3381926-.733967-1.4253049-.235389-1.8877413.777523-.720993 4.557639 5.2434168 9.909483 7.0801882 12.592356 4.3203975 2.361298-2.4298761 1.156554-5.6891721-2.398368-6.4870834-1.666254-.3743973-2.257505-.5328675-3.604038-.9665754-.750648-.2418755-1.689422-.6051522-2.085134-.8071785-.396639-.2010996-.917459-.4605829-1.158408-.5764237-3.267636-1.5615336-5.042317-6.1488283-3.800504-9.822371.610713-1.8061893 1.223279-2.7625708 2.325156-3.628133.287285-.2261212.696898-.5634496.909119-.7487948 1.252933-1.0944637 2.998886-1.5439259 6.522299-1.6783012 2.722721-.1037933 2.921967-.1315951 3.394598-.4809709.275237-.2038797.746014-.493945 1.046274-.6450014zm-188.775054 1.9173965c.30026.1260347.706166.4559493.900778.7339671.351229.5004322 1.909056 2.4762124 2.772765 3.516926.247436.2974791 1.075002 1.2010371 1.839552 2.0082156 1.557826 1.6430856 1.687568 2.1184961.798838 2.9173341-.226122.202953-.766403.6894843-1.201964 1.0805628-.325976.2940038-1.072107.9565552-1.850557 1.6439978l-.390123.3442045c-.129741.1143656-.258585.2278317-.384736.3388071-1.336339 1.1750889-3.698539 3.3499942-7.086599 6.5247161 1.862191 2.7509615 4.165852 4.0472785 6.910983 3.8889511.580833-.0335 1.067353-.0513686 1.470614-.0551919l.32552.0001257c2.292343.026185 1.274372.614092-.117504 1.3423916l-.187542.0979016c-.06308.0328865-.126642.0660133-.190426.0993435-1.682008.8776097-3.386258 2.0665994-4.341712 3.025761-1.032373 1.0379334-2.271406 1.188063-3.020201.3669836-.073211-.0806252-.524527-.3567896-2.461385-1.5068568-1.097244-.6517974-3.464499-1.4476041-7.101767-2.3874201.019946-.143218.11178-1.2261942.275502-3.2489286.098233-1.2065975.249289-2.6105877.336402-3.1202871.251142-1.4744214.201099-5.6317151-.097307-8.1310957-.351229-2.9432824-.116767-3.4780034 1.711664-3.9089311.254849-.0593105.671876-.2001729.926726-.31138.25485-.1121339.943407-.3882983 1.530025-.6153462 1.231619-.4754105 3.375137-1.5921156 4.493695-2.3399837 1.356727-.9081916 2.610588-1.7867281 3.088779-2.1639056.552328-.4355613.394785-.4142466 1.04998-.1408624zm210.808896-1.4541227c.140862-.0138116 1.056468 1.598692 1.478128 2.6041899.193686.4605829.446682.9471142.56345 1.0805627.116767.1343753.298406.5217469.404979.8618554.105647.3401085.318794.8609287.47263 1.1584078.802545 1.5522663 1.673668 3.5734562 1.613431 3.7439738-.037996.1075002-.140863.3910785-.228902.6320273l-.159397.4374147-.501358-.4021991c-.275238-.2214876-1.091684-.9786229-1.813604-1.6820081-1.941491-1.8905214-4.124858-3.4641025-5.722534-4.1220781-1.240886-.5124796-3.551215-.653342-4.425117-.2715308-2.356665 1.0295928-3.180525 2.6513637-2.303842 4.5344713.784937 1.685715 1.711664 2.0860607 6.968055 3.0109334 1.786728.3141602 2.330716.4930184 4.018284 1.3205849 6.622386 3.2472486 7.872539 11.3245941 2.279747 14.7340198-2.69492 1.6421588-4.958912 2.0480649-9.438707 1.6903486-3.297291-.264117-3.534533-.2557765-4.309276.1390089-.355863.1816383-.751575.3299145-.879464.3299145-.262263 0-1.142653-1.7959953-1.476274-3.0118601-.116768-.4244406-.347523-1.0156919-.513407-1.313171s-.429074-.9832565-.584764-1.5244646-.379031-1.1315327-.496725-1.3122443c-.490238-.7543552-.606079-1.441986-.317867-1.8821809l.269677-.4114665.442975.5189667c.242802.2854317.923019 1.1092913 1.509637 1.831211s1.319658 1.4873955 1.627331 1.6996158.779377.5671564 1.048128.7895707c1.683861 1.3928695 5.042317 2.173173 6.95786 1.6162105 3.404792-.9897436 3.076731-5.4213482-.522674-7.0607269-1.557826-.7089455-1.584701-.7200662-2.239897-.913752-6.8448-2.0221166-9.258921-4.4464323-9.221852-9.2589215.023168-2.9757178 1.626404-6.0459617 3.738413-7.1598866.213147-.1121339.629247-.3410352.926726-.5087727 1.5569-.8776097 3.141602-1.049054 6.99493-.7543551l1.665327.1269615.67651-.4856045c.372544-.2678239.838687-.5514021 1.037007-.6311006.198319-.0787717.406832-.1482762.462436-.1539258zm-330.151718 4.8371032h-2.511649c.008238.1177844.013043.429519.014416.9352038v.6999177c-.001373.6608449-.006178 1.5156399-.014416 2.564385-.083405 10.7639248.316184 11.523827-2.640073 14.6144589-.78679.8229329-2.048551 1.7321196-2.048551 1.8729819 0 1.1936234 5.045584 2.2802222 6.163216 1.3395951.609785-.5134063.597738-.8744468.709872-5.1726029.138728-5.3098603.210711-9.0544888.215949-11.2338854l.000158-.4150096-.000589-.1918524c-.616927-.0920717-.92539-.430872-.92539-1.0164007 0-.540488.294548-.9165859.883646-1.1282936l.153411-.0495021zm17.269182 4.3872649v13.3672257c.682895.3251232 1.33634.645846 1.960336.9621686.27184.1377732 1.476615.9811624 3.614326 2.5301675.115469.1129239.220158-2.1885145.314066-6.9043152.041917-2.1049516.064487-3.6881431.067712-4.7495743v-.4872357c-.003046-.838205-.023347-1.2110128-.060905-1.1184234l-.006807.0211704zm-26.30574-3.8925451c-3.044254 1.111244-4.566381 4.0190172-4.566381 8.7233197s1.459419 7.9407583 4.378256 9.7093676c-.011739-.5136604-.011739-1.7197671 0-3.6183202.007149-1.2287396.175438-4.6144566.18745-7.6997536zm165.087932 7.7082306c1.364141-.2715308 4.211044-.2668971 7.11077.0120475 1.316878.1269615 3.332507.2715307 4.479794.321574 1.071914.0475719 1.94061.1259063 2.606089.235003-1.140581 3.1505082-2.535657 5.1585434-4.18523 6.0241057-.777523.4086863-3.480784.46707-10.082781.2205608-1.185901-.0441739-2.022442-.0700327-2.661387-.0739215l-.329831.0000797c-.884168.0065234-1.362295.0671076-1.994569.195243-.91993.1871987-1.907968.4183926-2.964115.6935818 1.976077-4.6345092 4.64983-7.1772672 8.02126-7.628274zm-41.655934-4.4669769v9.2284855c.895175-.6943721 1.924631-1.603178 3.08837-2.7264178 2.782394-2.6855657 2.148255-3.0344786-.858079-5.0581878l-.190975-.1286988zm120.017932-4.6017187v13.2257208c1.427994 0 2.518481-.4323827 3.271459-1.2971481.361865-.4155868.696898-.528234.696898-.5875444 0-.0593105.175152-.31138.388299-.5588159 1.080562-1.2566408 1.290929-5.9959185.343815-7.7353836-.072079-.1326248-.254037-.4737974-.445589-.8351519l-.164197-.3102817c-.46429-.8803899-.725626-1.1537741-1.357654-1.4253049-.545675-.2341429-1.456686-.3928396-2.733031-.4760903zm21.672558-.0133635-.136789.0049885v12.9840649c1.870327-.7731664 2.894147-1.3339741 3.071461-1.6824231.108427-.2122203.313233-.5597426.455949-.7719629 1.827504-2.7292087.494872-9.0300201-2.159272-10.2032555-.42027-.1862719-.781864-.2940443-1.084781-.3233171zm-160.456805-9.6364472 4.436652 4.2064394-4.249611 4.2135258-4.623693-4.5550472z" fill="#ccb18d" fill-rule="evenodd" transform="translate(-95 -22)"/></svg>